<?xml version="1.0" encoding="UTF-8"?>
<svg width="529" height="557" xmlns="http://www.w3.org/2000/svg">
  <defs>
    <style>
      .shape { fill: black; stroke: none; }
    </style>
  </defs>
  <path d="M 0.00 0.00 L 0.00 556.00 L 528.00 556.00 L 528.00 0.00 Z M 342.00 429.00 L 348.00 426.00 L 351.00 431.00 L 356.00 433.00 L 380.00 433.00 L 381.00 436.00 L 376.00 441.00 L 357.00 442.00 L 348.00 437.00 L 342.00 431.00 Z M 343.00 398.00 L 347.00 397.00 L 356.00 401.00 L 358.00 405.00 L 355.00 406.00 L 344.00 401.00 Z M 225.00 351.00 L 229.00 351.00 L 236.00 381.00 L 254.00 400.00 L 344.00 424.00 L 336.00 427.00 L 279.00 417.00 L 250.00 407.00 L 229.00 383.00 Z M 254.00 348.00 L 257.00 347.00 L 260.00 350.00 L 266.00 350.00 L 269.00 346.00 L 272.00 346.00 L 279.00 354.00 L 282.00 367.00 L 278.00 367.00 L 273.00 357.00 L 262.00 357.00 L 255.00 352.00 Z M 249.00 334.00 L 258.00 333.00 L 263.00 335.00 L 264.00 338.00 L 261.00 339.00 L 250.00 337.00 Z M 319.00 317.00 L 330.00 327.00 L 338.00 349.00 L 346.00 359.00 L 355.00 366.00 L 354.00 369.00 L 336.00 354.00 L 326.00 329.00 L 318.00 320.00 Z M 252.00 314.00 L 281.00 318.00 L 295.00 342.00 L 360.00 385.00 L 388.00 396.00 L 392.00 408.00 L 386.00 418.00 L 354.00 422.00 L 351.00 415.00 L 362.00 414.00 L 369.00 404.00 L 366.00 395.00 L 318.00 360.00 L 289.00 349.00 L 273.00 327.00 Z M 289.00 309.00 L 292.00 308.00 L 293.00 310.00 L 301.00 312.00 L 308.00 318.00 L 310.00 318.00 L 314.00 322.00 L 314.00 324.00 L 311.00 325.00 L 307.00 320.00 L 295.00 314.00 L 294.00 312.00 L 290.00 312.00 Z M 359.00 294.00 L 359.00 301.00 L 355.00 309.00 L 347.00 319.00 L 340.00 323.00 L 332.00 316.00 L 332.00 314.00 L 337.00 311.00 L 349.00 299.00 L 356.00 294.00 Z M 273.00 285.00 L 276.00 284.00 L 284.00 287.00 L 288.00 291.00 L 290.00 291.00 L 291.00 294.00 L 288.00 295.00 L 287.00 293.00 L 274.00 288.00 Z M 150.00 283.00 L 153.00 284.00 L 176.00 313.00 L 187.00 322.00 L 186.00 325.00 L 171.00 319.00 L 158.00 307.00 L 151.00 294.00 L 149.00 287.00 Z M 374.00 275.00 L 374.00 299.00 L 368.00 315.00 L 354.00 332.00 L 341.00 338.00 L 340.00 335.00 L 351.00 329.00 L 364.00 313.00 L 371.00 281.00 L 343.00 289.00 L 340.00 286.00 Z M 402.00 113.00 L 421.00 150.00 L 415.00 192.00 L 380.00 238.00 L 321.00 275.00 L 311.00 304.00 L 296.00 272.00 L 300.00 235.00 L 307.00 268.00 L 355.00 214.00 L 320.00 111.00 L 365.00 171.00 L 378.00 117.00 L 377.00 218.00 L 409.00 168.00 Z M 134.00 101.00 L 134.00 126.00 L 132.00 133.00 L 129.00 134.00 L 128.00 124.00 L 131.00 102.00 Z M 202.00 59.00 L 150.00 187.00 L 231.00 247.00 L 239.00 194.00 L 245.00 303.00 L 131.00 271.00 L 205.00 346.00 L 197.00 430.00 L 268.00 525.00 L 300.00 449.00 L 266.00 542.00 L 191.00 453.00 L 200.00 347.00 L 126.00 280.00 L 128.00 247.00 L 234.00 302.00 L 130.00 191.00 Z M 177.00 21.00 L 138.00 73.00 L 126.00 110.00 L 128.00 140.00 L 117.00 151.00 L 112.00 114.00 L 125.00 75.00 L 145.00 46.00 Z" class="shape" fill-rule="evenodd"/>
</svg>