<?xml version="1.0" encoding="UTF-8"?>
<svg width="529" height="557" xmlns="http://www.w3.org/2000/svg">
  <defs>
    <style>
      .shape { fill: black; stroke: none; }
    </style>
  </defs>
  <path d="M 346.00 427.00 L 344.00 429.00 L 343.00 429.00 L 343.00 431.00 L 348.00 436.00 L 349.00 436.00 L 352.00 439.00 L 353.00 439.00 L 354.00 440.00 L 356.00 440.00 L 357.00 441.00 L 366.00 441.00 L 367.00 440.00 L 376.00 440.00 L 380.00 436.00 L 380.00 434.00 L 377.00 434.00 L 376.00 435.00 L 372.00 435.00 L 371.00 434.00 L 356.00 434.00 L 355.00 433.00 L 353.00 433.00 L 352.00 432.00 L 351.00 432.00 L 350.00 431.00 L 350.00 430.00 L 349.00 429.00 L 349.00 428.00 L 348.00 427.00 Z" class="shape" fill-rule="nonzero"/>
  <path d="M 344.00 398.00 L 344.00 400.00 L 345.00 400.00 L 346.00 401.00 L 347.00 401.00 L 348.00 402.00 L 350.00 402.00 L 351.00 403.00 L 352.00 403.00 L 353.00 404.00 L 353.00 405.00 L 357.00 405.00 L 357.00 403.00 L 356.00 402.00 L 355.00 402.00 L 354.00 401.00 L 353.00 401.00 L 352.00 400.00 L 350.00 400.00 L 349.00 399.00 L 348.00 399.00 L 347.00 398.00 Z" class="shape" fill-rule="nonzero"/>
  <path d="M 226.00 351.00 L 226.00 367.00 L 227.00 368.00 L 227.00 373.00 L 228.00 374.00 L 228.00 377.00 L 229.00 378.00 L 229.00 380.00 L 230.00 381.00 L 230.00 383.00 L 231.00 384.00 L 231.00 385.00 L 232.00 386.00 L 232.00 387.00 L 233.00 388.00 L 233.00 389.00 L 235.00 391.00 L 235.00 392.00 L 237.00 394.00 L 237.00 395.00 L 244.00 402.00 L 245.00 402.00 L 247.00 404.00 L 248.00 404.00 L 250.00 406.00 L 251.00 406.00 L 252.00 407.00 L 253.00 407.00 L 254.00 408.00 L 255.00 408.00 L 256.00 409.00 L 257.00 409.00 L 258.00 410.00 L 259.00 410.00 L 260.00 411.00 L 262.00 411.00 L 263.00 412.00 L 265.00 412.00 L 266.00 413.00 L 269.00 413.00 L 270.00 414.00 L 273.00 414.00 L 274.00 415.00 L 278.00 415.00 L 279.00 416.00 L 284.00 416.00 L 285.00 417.00 L 291.00 417.00 L 292.00 418.00 L 298.00 418.00 L 299.00 419.00 L 306.00 419.00 L 307.00 420.00 L 313.00 420.00 L 314.00 421.00 L 319.00 421.00 L 320.00 422.00 L 324.00 422.00 L 325.00 423.00 L 328.00 423.00 L 329.00 424.00 L 332.00 424.00 L 333.00 425.00 L 335.00 425.00 L 336.00 426.00 L 341.00 426.00 L 343.00 424.00 L 343.00 422.00 L 337.00 422.00 L 336.00 421.00 L 333.00 421.00 L 332.00 420.00 L 328.00 420.00 L 327.00 419.00 L 322.00 419.00 L 321.00 418.00 L 316.00 418.00 L 315.00 417.00 L 310.00 417.00 L 309.00 416.00 L 305.00 416.00 L 304.00 415.00 L 299.00 415.00 L 298.00 414.00 L 293.00 414.00 L 292.00 413.00 L 289.00 413.00 L 288.00 412.00 L 284.00 412.00 L 283.00 411.00 L 280.00 411.00 L 279.00 410.00 L 276.00 410.00 L 275.00 409.00 L 272.00 409.00 L 271.00 408.00 L 269.00 408.00 L 268.00 407.00 L 266.00 407.00 L 265.00 406.00 L 264.00 406.00 L 263.00 405.00 L 262.00 405.00 L 261.00 404.00 L 260.00 404.00 L 259.00 403.00 L 258.00 403.00 L 257.00 402.00 L 256.00 402.00 L 255.00 401.00 L 254.00 401.00 L 251.00 398.00 L 250.00 398.00 L 239.00 387.00 L 239.00 386.00 L 237.00 384.00 L 237.00 383.00 L 235.00 381.00 L 235.00 380.00 L 234.00 379.00 L 234.00 378.00 L 233.00 377.00 L 233.00 376.00 L 232.00 375.00 L 232.00 373.00 L 231.00 372.00 L 231.00 370.00 L 230.00 369.00 L 230.00 366.00 L 229.00 365.00 L 229.00 362.00 L 228.00 361.00 L 228.00 351.00 Z" class="shape" fill-rule="nonzero"/>
  <path d="M 269.00 347.00 L 268.00 348.00 L 266.00 348.00 L 266.00 350.00 L 265.00 351.00 L 260.00 351.00 L 257.00 348.00 L 255.00 348.00 L 255.00 350.00 L 256.00 351.00 L 256.00 352.00 L 258.00 354.00 L 259.00 354.00 L 260.00 355.00 L 261.00 355.00 L 262.00 356.00 L 273.00 356.00 L 275.00 358.00 L 275.00 359.00 L 276.00 360.00 L 276.00 361.00 L 277.00 362.00 L 277.00 363.00 L 278.00 364.00 L 278.00 365.00 L 279.00 366.00 L 279.00 367.00 L 281.00 367.00 L 281.00 365.00 L 280.00 364.00 L 280.00 362.00 L 279.00 361.00 L 279.00 358.00 L 278.00 357.00 L 278.00 354.00 L 277.00 353.00 L 277.00 352.00 L 272.00 347.00 Z" class="shape" fill-rule="nonzero"/>
  <path d="M 250.00 334.00 L 250.00 336.00 L 255.00 336.00 L 256.00 337.00 L 260.00 337.00 L 261.00 338.00 L 263.00 338.00 L 263.00 336.00 L 262.00 336.00 L 261.00 335.00 L 259.00 335.00 L 258.00 334.00 Z" class="shape" fill-rule="nonzero"/>
  <path d="M 319.00 318.00 L 319.00 320.00 L 325.00 326.00 L 325.00 327.00 L 327.00 329.00 L 327.00 330.00 L 328.00 331.00 L 328.00 332.00 L 329.00 333.00 L 329.00 334.00 L 330.00 335.00 L 330.00 337.00 L 331.00 338.00 L 331.00 341.00 L 332.00 342.00 L 332.00 344.00 L 333.00 345.00 L 333.00 347.00 L 334.00 348.00 L 334.00 349.00 L 335.00 350.00 L 335.00 351.00 L 337.00 353.00 L 337.00 354.00 L 343.00 360.00 L 345.00 360.00 L 346.00 361.00 L 346.00 362.00 L 352.00 368.00 L 354.00 368.00 L 354.00 366.00 L 348.00 360.00 L 346.00 360.00 L 345.00 359.00 L 345.00 358.00 L 339.00 352.00 L 339.00 351.00 L 337.00 349.00 L 337.00 347.00 L 336.00 346.00 L 336.00 345.00 L 335.00 344.00 L 335.00 342.00 L 334.00 341.00 L 334.00 339.00 L 333.00 338.00 L 333.00 335.00 L 332.00 334.00 L 332.00 333.00 L 331.00 332.00 L 331.00 331.00 L 330.00 330.00 L 330.00 329.00 L 329.00 328.00 L 329.00 327.00 L 326.00 324.00 L 326.00 323.00 L 321.00 318.00 Z" class="shape" fill-rule="nonzero"/>
  <path d="M 253.00 314.00 L 253.00 317.00 L 255.00 317.00 L 256.00 318.00 L 258.00 318.00 L 259.00 319.00 L 261.00 319.00 L 262.00 320.00 L 263.00 320.00 L 264.00 321.00 L 265.00 321.00 L 266.00 322.00 L 267.00 322.00 L 269.00 324.00 L 270.00 324.00 L 272.00 326.00 L 273.00 326.00 L 280.00 333.00 L 280.00 334.00 L 283.00 337.00 L 283.00 338.00 L 284.00 339.00 L 284.00 340.00 L 285.00 341.00 L 285.00 342.00 L 287.00 344.00 L 287.00 345.00 L 288.00 346.00 L 288.00 347.00 L 289.00 348.00 L 290.00 348.00 L 291.00 349.00 L 295.00 349.00 L 296.00 350.00 L 299.00 350.00 L 300.00 351.00 L 302.00 351.00 L 303.00 352.00 L 304.00 352.00 L 305.00 353.00 L 307.00 353.00 L 308.00 354.00 L 309.00 354.00 L 311.00 356.00 L 312.00 356.00 L 313.00 357.00 L 314.00 357.00 L 315.00 358.00 L 316.00 358.00 L 317.00 359.00 L 318.00 359.00 L 320.00 361.00 L 321.00 361.00 L 324.00 364.00 L 325.00 364.00 L 328.00 367.00 L 329.00 367.00 L 332.00 370.00 L 333.00 370.00 L 336.00 373.00 L 337.00 373.00 L 339.00 375.00 L 340.00 375.00 L 343.00 378.00 L 344.00 378.00 L 347.00 381.00 L 348.00 381.00 L 350.00 383.00 L 351.00 383.00 L 353.00 385.00 L 354.00 385.00 L 356.00 387.00 L 357.00 387.00 L 359.00 389.00 L 360.00 389.00 L 362.00 391.00 L 363.00 391.00 L 367.00 395.00 L 367.00 396.00 L 369.00 398.00 L 369.00 399.00 L 370.00 400.00 L 370.00 404.00 L 369.00 405.00 L 369.00 406.00 L 368.00 407.00 L 368.00 408.00 L 365.00 411.00 L 365.00 412.00 L 362.00 415.00 L 361.00 415.00 L 360.00 416.00 L 358.00 416.00 L 357.00 415.00 L 352.00 415.00 L 352.00 418.00 L 353.00 419.00 L 353.00 420.00 L 354.00 421.00 L 370.00 421.00 L 371.00 420.00 L 383.00 420.00 L 385.00 418.00 L 385.00 417.00 L 387.00 415.00 L 387.00 414.00 L 388.00 413.00 L 388.00 412.00 L 390.00 410.00 L 390.00 409.00 L 391.00 408.00 L 391.00 401.00 L 390.00 400.00 L 390.00 399.00 L 388.00 397.00 L 387.00 397.00 L 385.00 395.00 L 384.00 395.00 L 381.00 392.00 L 379.00 392.00 L 378.00 391.00 L 374.00 391.00 L 373.00 390.00 L 371.00 390.00 L 370.00 389.00 L 367.00 389.00 L 366.00 388.00 L 364.00 388.00 L 363.00 387.00 L 362.00 387.00 L 361.00 386.00 L 360.00 386.00 L 358.00 384.00 L 357.00 384.00 L 356.00 383.00 L 355.00 383.00 L 352.00 380.00 L 351.00 380.00 L 349.00 378.00 L 348.00 378.00 L 345.00 375.00 L 344.00 375.00 L 340.00 371.00 L 339.00 371.00 L 337.00 369.00 L 337.00 368.00 L 335.00 368.00 L 331.00 364.00 L 330.00 364.00 L 327.00 361.00 L 326.00 361.00 L 323.00 358.00 L 322.00 358.00 L 320.00 356.00 L 319.00 356.00 L 317.00 354.00 L 316.00 354.00 L 315.00 353.00 L 314.00 353.00 L 312.00 351.00 L 311.00 351.00 L 310.00 350.00 L 309.00 350.00 L 308.00 349.00 L 307.00 349.00 L 306.00 348.00 L 305.00 348.00 L 304.00 347.00 L 303.00 347.00 L 301.00 345.00 L 299.00 345.00 L 298.00 344.00 L 297.00 344.00 L 296.00 343.00 L 295.00 343.00 L 293.00 341.00 L 293.00 340.00 L 292.00 339.00 L 292.00 334.00 L 291.00 333.00 L 291.00 331.00 L 290.00 330.00 L 290.00 329.00 L 289.00 328.00 L 289.00 327.00 L 287.00 325.00 L 287.00 324.00 L 285.00 322.00 L 284.00 322.00 L 281.00 319.00 L 280.00 319.00 L 279.00 318.00 L 278.00 318.00 L 277.00 317.00 L 276.00 317.00 L 275.00 316.00 L 273.00 316.00 L 272.00 315.00 L 269.00 315.00 L 268.00 314.00 Z" class="shape" fill-rule="nonzero"/>
  <path d="M 295.00 311.00 L 295.00 313.00 L 296.00 313.00 L 297.00 314.00 L 298.00 314.00 L 300.00 316.00 L 301.00 316.00 L 302.00 317.00 L 303.00 317.00 L 305.00 319.00 L 307.00 319.00 L 308.00 320.00 L 308.00 321.00 L 311.00 324.00 L 313.00 324.00 L 313.00 322.00 L 310.00 319.00 L 308.00 319.00 L 307.00 318.00 L 307.00 317.00 L 306.00 316.00 L 305.00 316.00 L 304.00 315.00 L 303.00 315.00 L 301.00 313.00 L 300.00 313.00 L 299.00 312.00 L 298.00 312.00 L 297.00 311.00 Z" class="shape" fill-rule="nonzero"/>
  <path d="M 290.00 309.00 L 290.00 311.00 L 292.00 311.00 L 292.00 309.00 Z" class="shape" fill-rule="nonzero"/>
  <path d="M 356.00 295.00 L 354.00 297.00 L 353.00 297.00 L 350.00 300.00 L 349.00 300.00 L 337.00 312.00 L 336.00 312.00 L 334.00 314.00 L 333.00 314.00 L 333.00 316.00 L 334.00 317.00 L 335.00 317.00 L 337.00 319.00 L 338.00 319.00 L 340.00 321.00 L 340.00 322.00 L 342.00 322.00 L 346.00 318.00 L 347.00 318.00 L 347.00 317.00 L 352.00 312.00 L 352.00 311.00 L 354.00 309.00 L 354.00 308.00 L 355.00 307.00 L 355.00 306.00 L 356.00 305.00 L 356.00 304.00 L 357.00 303.00 L 357.00 302.00 L 358.00 301.00 L 358.00 298.00 L 359.00 297.00 L 359.00 295.00 Z" class="shape" fill-rule="nonzero"/>
  <path d="M 274.00 285.00 L 274.00 287.00 L 276.00 287.00 L 277.00 288.00 L 278.00 288.00 L 279.00 289.00 L 281.00 289.00 L 283.00 291.00 L 284.00 291.00 L 285.00 292.00 L 287.00 292.00 L 288.00 293.00 L 288.00 294.00 L 290.00 294.00 L 290.00 292.00 L 288.00 292.00 L 287.00 291.00 L 287.00 290.00 L 286.00 290.00 L 284.00 288.00 L 282.00 288.00 L 281.00 287.00 L 280.00 287.00 L 279.00 286.00 L 277.00 286.00 L 276.00 285.00 Z" class="shape" fill-rule="nonzero"/>
  <path d="M 150.00 284.00 L 150.00 287.00 L 151.00 288.00 L 151.00 290.00 L 152.00 291.00 L 152.00 294.00 L 153.00 295.00 L 153.00 296.00 L 154.00 297.00 L 154.00 299.00 L 155.00 300.00 L 155.00 301.00 L 157.00 303.00 L 157.00 304.00 L 159.00 306.00 L 159.00 307.00 L 168.00 316.00 L 169.00 316.00 L 171.00 318.00 L 172.00 318.00 L 173.00 319.00 L 174.00 319.00 L 175.00 320.00 L 176.00 320.00 L 177.00 321.00 L 178.00 321.00 L 179.00 322.00 L 180.00 322.00 L 181.00 323.00 L 183.00 323.00 L 184.00 324.00 L 186.00 324.00 L 186.00 322.00 L 185.00 322.00 L 184.00 321.00 L 183.00 321.00 L 175.00 313.00 L 175.00 312.00 L 170.00 307.00 L 170.00 306.00 L 163.00 299.00 L 163.00 298.00 L 158.00 293.00 L 158.00 292.00 L 154.00 288.00 L 154.00 287.00 L 152.00 285.00 L 152.00 284.00 Z" class="shape" fill-rule="nonzero"/>
  <path d="M 372.00 276.00 L 371.00 277.00 L 367.00 277.00 L 366.00 278.00 L 363.00 278.00 L 362.00 279.00 L 360.00 279.00 L 359.00 280.00 L 356.00 280.00 L 355.00 281.00 L 353.00 281.00 L 352.00 282.00 L 350.00 282.00 L 349.00 283.00 L 348.00 283.00 L 347.00 284.00 L 345.00 284.00 L 344.00 285.00 L 343.00 285.00 L 342.00 286.00 L 341.00 286.00 L 341.00 288.00 L 343.00 288.00 L 344.00 287.00 L 345.00 287.00 L 346.00 286.00 L 348.00 286.00 L 349.00 285.00 L 351.00 285.00 L 352.00 284.00 L 355.00 284.00 L 356.00 283.00 L 358.00 283.00 L 359.00 282.00 L 362.00 282.00 L 363.00 281.00 L 366.00 281.00 L 367.00 280.00 L 371.00 280.00 L 372.00 281.00 L 372.00 285.00 L 371.00 286.00 L 371.00 293.00 L 370.00 294.00 L 370.00 298.00 L 369.00 299.00 L 369.00 302.00 L 368.00 303.00 L 368.00 305.00 L 367.00 306.00 L 367.00 308.00 L 366.00 309.00 L 366.00 310.00 L 365.00 311.00 L 365.00 313.00 L 363.00 315.00 L 363.00 316.00 L 362.00 317.00 L 362.00 318.00 L 360.00 320.00 L 360.00 321.00 L 351.00 330.00 L 350.00 330.00 L 348.00 332.00 L 347.00 332.00 L 345.00 334.00 L 344.00 334.00 L 343.00 335.00 L 341.00 335.00 L 341.00 337.00 L 343.00 337.00 L 344.00 336.00 L 346.00 336.00 L 347.00 335.00 L 348.00 335.00 L 350.00 333.00 L 351.00 333.00 L 353.00 331.00 L 354.00 331.00 L 361.00 324.00 L 361.00 323.00 L 364.00 320.00 L 364.00 319.00 L 365.00 318.00 L 365.00 317.00 L 367.00 315.00 L 367.00 314.00 L 368.00 313.00 L 368.00 312.00 L 369.00 311.00 L 369.00 309.00 L 370.00 308.00 L 370.00 307.00 L 371.00 306.00 L 371.00 304.00 L 372.00 303.00 L 372.00 300.00 L 373.00 299.00 L 373.00 293.00 L 374.00 292.00 L 374.00 276.00 Z" class="shape" fill-rule="nonzero"/>
  <path d="M 321.00 111.00 L 321.00 113.00 L 322.00 114.00 L 322.00 115.00 L 323.00 116.00 L 323.00 118.00 L 324.00 119.00 L 324.00 121.00 L 325.00 122.00 L 325.00 123.00 L 326.00 124.00 L 326.00 126.00 L 327.00 127.00 L 327.00 128.00 L 328.00 129.00 L 328.00 130.00 L 329.00 131.00 L 329.00 133.00 L 330.00 134.00 L 330.00 135.00 L 331.00 136.00 L 331.00 137.00 L 332.00 138.00 L 332.00 139.00 L 333.00 140.00 L 333.00 141.00 L 334.00 142.00 L 334.00 143.00 L 335.00 144.00 L 335.00 145.00 L 336.00 146.00 L 336.00 147.00 L 337.00 148.00 L 337.00 149.00 L 338.00 150.00 L 338.00 151.00 L 339.00 152.00 L 339.00 153.00 L 340.00 154.00 L 340.00 155.00 L 341.00 156.00 L 341.00 157.00 L 343.00 159.00 L 343.00 160.00 L 344.00 161.00 L 344.00 163.00 L 345.00 164.00 L 345.00 165.00 L 346.00 166.00 L 346.00 167.00 L 347.00 168.00 L 347.00 169.00 L 348.00 170.00 L 348.00 171.00 L 349.00 172.00 L 349.00 174.00 L 350.00 175.00 L 350.00 176.00 L 351.00 177.00 L 351.00 179.00 L 352.00 180.00 L 352.00 183.00 L 353.00 184.00 L 353.00 187.00 L 354.00 188.00 L 354.00 192.00 L 355.00 193.00 L 355.00 200.00 L 356.00 201.00 L 356.00 214.00 L 355.00 215.00 L 355.00 222.00 L 354.00 223.00 L 354.00 226.00 L 353.00 227.00 L 353.00 230.00 L 352.00 231.00 L 352.00 232.00 L 351.00 233.00 L 351.00 234.00 L 347.00 238.00 L 346.00 238.00 L 345.00 239.00 L 344.00 239.00 L 342.00 241.00 L 340.00 241.00 L 338.00 243.00 L 337.00 243.00 L 336.00 244.00 L 335.00 244.00 L 334.00 245.00 L 333.00 245.00 L 332.00 246.00 L 331.00 246.00 L 328.00 249.00 L 327.00 249.00 L 324.00 252.00 L 323.00 252.00 L 314.00 261.00 L 313.00 261.00 L 313.00 262.00 L 308.00 267.00 L 308.00 268.00 L 307.00 269.00 L 304.00 269.00 L 303.00 268.00 L 303.00 265.00 L 302.00 264.00 L 302.00 244.00 L 303.00 243.00 L 303.00 239.00 L 304.00 238.00 L 304.00 236.00 L 305.00 235.00 L 305.00 232.00 L 303.00 232.00 L 303.00 233.00 L 301.00 235.00 L 301.00 237.00 L 300.00 238.00 L 300.00 239.00 L 299.00 240.00 L 299.00 243.00 L 298.00 244.00 L 298.00 248.00 L 297.00 249.00 L 297.00 257.00 L 296.00 258.00 L 296.00 260.00 L 297.00 261.00 L 297.00 272.00 L 298.00 273.00 L 298.00 277.00 L 299.00 278.00 L 299.00 281.00 L 300.00 282.00 L 300.00 284.00 L 301.00 285.00 L 301.00 287.00 L 302.00 288.00 L 302.00 290.00 L 303.00 291.00 L 303.00 292.00 L 304.00 293.00 L 304.00 294.00 L 306.00 296.00 L 306.00 297.00 L 308.00 299.00 L 308.00 300.00 L 311.00 303.00 L 313.00 303.00 L 313.00 289.00 L 314.00 288.00 L 314.00 286.00 L 315.00 285.00 L 315.00 283.00 L 316.00 282.00 L 316.00 281.00 L 318.00 279.00 L 318.00 278.00 L 320.00 276.00 L 320.00 275.00 L 329.00 266.00 L 330.00 266.00 L 333.00 263.00 L 334.00 263.00 L 336.00 261.00 L 337.00 261.00 L 338.00 260.00 L 339.00 260.00 L 340.00 259.00 L 341.00 259.00 L 342.00 258.00 L 343.00 258.00 L 344.00 257.00 L 345.00 257.00 L 346.00 256.00 L 347.00 256.00 L 348.00 255.00 L 349.00 255.00 L 350.00 254.00 L 352.00 254.00 L 353.00 253.00 L 354.00 253.00 L 355.00 252.00 L 356.00 252.00 L 357.00 251.00 L 358.00 251.00 L 359.00 250.00 L 360.00 250.00 L 361.00 249.00 L 362.00 249.00 L 363.00 248.00 L 364.00 248.00 L 365.00 247.00 L 366.00 247.00 L 367.00 246.00 L 368.00 246.00 L 370.00 244.00 L 371.00 244.00 L 373.00 242.00 L 374.00 242.00 L 379.00 237.00 L 380.00 237.00 L 393.00 224.00 L 393.00 223.00 L 398.00 218.00 L 398.00 217.00 L 401.00 214.00 L 401.00 213.00 L 403.00 211.00 L 403.00 210.00 L 405.00 208.00 L 405.00 207.00 L 407.00 205.00 L 407.00 204.00 L 408.00 203.00 L 408.00 202.00 L 410.00 200.00 L 410.00 199.00 L 411.00 198.00 L 411.00 197.00 L 412.00 196.00 L 412.00 195.00 L 413.00 194.00 L 413.00 193.00 L 414.00 192.00 L 414.00 190.00 L 415.00 189.00 L 415.00 188.00 L 416.00 187.00 L 416.00 185.00 L 417.00 184.00 L 417.00 181.00 L 418.00 180.00 L 418.00 178.00 L 419.00 177.00 L 419.00 173.00 L 420.00 172.00 L 420.00 150.00 L 419.00 149.00 L 419.00 146.00 L 418.00 145.00 L 418.00 142.00 L 417.00 141.00 L 417.00 138.00 L 416.00 137.00 L 416.00 135.00 L 415.00 134.00 L 415.00 133.00 L 414.00 132.00 L 414.00 131.00 L 413.00 130.00 L 413.00 129.00 L 412.00 128.00 L 412.00 127.00 L 411.00 126.00 L 411.00 125.00 L 409.00 123.00 L 409.00 122.00 L 405.00 118.00 L 405.00 117.00 L 402.00 114.00 L 400.00 114.00 L 400.00 116.00 L 402.00 118.00 L 402.00 119.00 L 403.00 120.00 L 403.00 121.00 L 404.00 122.00 L 404.00 123.00 L 405.00 124.00 L 405.00 126.00 L 406.00 127.00 L 406.00 128.00 L 407.00 129.00 L 407.00 131.00 L 408.00 132.00 L 408.00 134.00 L 409.00 135.00 L 409.00 137.00 L 410.00 138.00 L 410.00 142.00 L 411.00 143.00 L 411.00 162.00 L 410.00 163.00 L 410.00 168.00 L 409.00 169.00 L 409.00 172.00 L 408.00 173.00 L 408.00 175.00 L 407.00 176.00 L 407.00 178.00 L 406.00 179.00 L 406.00 181.00 L 405.00 182.00 L 405.00 183.00 L 404.00 184.00 L 404.00 186.00 L 403.00 187.00 L 403.00 188.00 L 402.00 189.00 L 402.00 190.00 L 401.00 191.00 L 401.00 192.00 L 400.00 193.00 L 400.00 194.00 L 399.00 195.00 L 399.00 196.00 L 398.00 197.00 L 398.00 198.00 L 396.00 200.00 L 396.00 201.00 L 394.00 203.00 L 394.00 204.00 L 388.00 210.00 L 388.00 211.00 L 387.00 212.00 L 386.00 212.00 L 379.00 219.00 L 377.00 219.00 L 376.00 218.00 L 376.00 214.00 L 377.00 213.00 L 377.00 211.00 L 378.00 210.00 L 378.00 206.00 L 379.00 205.00 L 379.00 201.00 L 380.00 200.00 L 380.00 195.00 L 381.00 194.00 L 381.00 183.00 L 382.00 182.00 L 382.00 164.00 L 381.00 163.00 L 381.00 145.00 L 380.00 144.00 L 380.00 135.00 L 379.00 134.00 L 379.00 128.00 L 378.00 127.00 L 378.00 122.00 L 377.00 121.00 L 377.00 117.00 L 375.00 117.00 L 375.00 123.00 L 376.00 124.00 L 376.00 141.00 L 375.00 142.00 L 375.00 151.00 L 374.00 152.00 L 374.00 157.00 L 373.00 158.00 L 373.00 162.00 L 372.00 163.00 L 372.00 165.00 L 371.00 166.00 L 371.00 168.00 L 370.00 169.00 L 370.00 170.00 L 368.00 172.00 L 366.00 172.00 L 365.00 171.00 L 365.00 170.00 L 361.00 170.00 L 353.00 162.00 L 353.00 161.00 L 350.00 158.00 L 350.00 157.00 L 348.00 155.00 L 348.00 154.00 L 346.00 152.00 L 346.00 151.00 L 344.00 149.00 L 344.00 148.00 L 343.00 147.00 L 343.00 146.00 L 341.00 144.00 L 341.00 143.00 L 340.00 142.00 L 340.00 141.00 L 338.00 139.00 L 338.00 138.00 L 337.00 137.00 L 337.00 136.00 L 336.00 135.00 L 336.00 134.00 L 334.00 132.00 L 334.00 131.00 L 333.00 130.00 L 333.00 129.00 L 332.00 128.00 L 332.00 127.00 L 331.00 126.00 L 331.00 125.00 L 329.00 123.00 L 329.00 122.00 L 328.00 121.00 L 328.00 120.00 L 327.00 119.00 L 327.00 118.00 L 326.00 117.00 L 326.00 116.00 L 325.00 115.00 L 325.00 114.00 L 323.00 112.00 L 323.00 111.00 Z" class="shape" fill-rule="nonzero"/>
  <path d="M 202.00 60.00 L 202.00 64.00 L 201.00 65.00 L 201.00 70.00 L 200.00 71.00 L 200.00 75.00 L 199.00 76.00 L 199.00 80.00 L 198.00 81.00 L 198.00 83.00 L 197.00 84.00 L 197.00 87.00 L 196.00 88.00 L 196.00 90.00 L 195.00 91.00 L 195.00 93.00 L 194.00 94.00 L 194.00 96.00 L 193.00 97.00 L 193.00 98.00 L 192.00 99.00 L 192.00 100.00 L 191.00 101.00 L 191.00 103.00 L 190.00 104.00 L 190.00 105.00 L 189.00 106.00 L 189.00 107.00 L 188.00 108.00 L 188.00 109.00 L 186.00 111.00 L 186.00 112.00 L 184.00 114.00 L 184.00 115.00 L 182.00 117.00 L 182.00 118.00 L 178.00 122.00 L 178.00 123.00 L 174.00 127.00 L 173.00 127.00 L 169.00 131.00 L 168.00 131.00 L 166.00 133.00 L 165.00 133.00 L 163.00 135.00 L 162.00 135.00 L 160.00 137.00 L 159.00 137.00 L 157.00 139.00 L 156.00 139.00 L 154.00 141.00 L 153.00 141.00 L 150.00 144.00 L 149.00 144.00 L 141.00 152.00 L 141.00 153.00 L 138.00 156.00 L 138.00 157.00 L 137.00 158.00 L 137.00 159.00 L 135.00 161.00 L 135.00 163.00 L 134.00 164.00 L 134.00 165.00 L 133.00 166.00 L 133.00 168.00 L 132.00 169.00 L 132.00 172.00 L 131.00 173.00 L 131.00 191.00 L 132.00 192.00 L 132.00 195.00 L 133.00 196.00 L 133.00 199.00 L 134.00 200.00 L 134.00 201.00 L 135.00 202.00 L 135.00 203.00 L 136.00 204.00 L 136.00 205.00 L 137.00 206.00 L 137.00 207.00 L 138.00 208.00 L 138.00 209.00 L 139.00 210.00 L 139.00 211.00 L 141.00 213.00 L 141.00 214.00 L 145.00 218.00 L 145.00 219.00 L 147.00 221.00 L 148.00 221.00 L 155.00 228.00 L 156.00 228.00 L 159.00 231.00 L 160.00 231.00 L 162.00 233.00 L 163.00 233.00 L 164.00 234.00 L 165.00 234.00 L 167.00 236.00 L 168.00 236.00 L 169.00 237.00 L 170.00 237.00 L 171.00 238.00 L 172.00 238.00 L 173.00 239.00 L 174.00 239.00 L 175.00 240.00 L 176.00 240.00 L 177.00 241.00 L 179.00 241.00 L 180.00 242.00 L 181.00 242.00 L 182.00 243.00 L 184.00 243.00 L 185.00 244.00 L 186.00 244.00 L 187.00 245.00 L 189.00 245.00 L 190.00 246.00 L 191.00 246.00 L 192.00 247.00 L 194.00 247.00 L 195.00 248.00 L 196.00 248.00 L 197.00 249.00 L 199.00 249.00 L 200.00 250.00 L 201.00 250.00 L 202.00 251.00 L 203.00 251.00 L 204.00 252.00 L 205.00 252.00 L 206.00 253.00 L 208.00 253.00 L 209.00 254.00 L 210.00 254.00 L 211.00 255.00 L 212.00 255.00 L 214.00 257.00 L 215.00 257.00 L 216.00 258.00 L 217.00 258.00 L 220.00 261.00 L 221.00 261.00 L 228.00 268.00 L 228.00 269.00 L 230.00 271.00 L 230.00 272.00 L 232.00 274.00 L 232.00 275.00 L 233.00 276.00 L 233.00 278.00 L 234.00 279.00 L 234.00 280.00 L 235.00 281.00 L 235.00 285.00 L 236.00 286.00 L 236.00 299.00 L 235.00 300.00 L 235.00 302.00 L 234.00 303.00 L 234.00 304.00 L 233.00 305.00 L 233.00 306.00 L 229.00 310.00 L 228.00 310.00 L 227.00 311.00 L 217.00 311.00 L 216.00 310.00 L 212.00 310.00 L 211.00 309.00 L 208.00 309.00 L 207.00 308.00 L 205.00 308.00 L 204.00 307.00 L 203.00 307.00 L 202.00 306.00 L 201.00 306.00 L 200.00 305.00 L 199.00 305.00 L 196.00 302.00 L 196.00 301.00 L 194.00 299.00 L 194.00 298.00 L 193.00 297.00 L 193.00 296.00 L 192.00 295.00 L 192.00 294.00 L 191.00 293.00 L 191.00 292.00 L 190.00 291.00 L 190.00 290.00 L 189.00 289.00 L 189.00 288.00 L 187.00 286.00 L 187.00 285.00 L 185.00 283.00 L 185.00 282.00 L 182.00 279.00 L 182.00 278.00 L 178.00 274.00 L 177.00 274.00 L 172.00 269.00 L 171.00 269.00 L 169.00 267.00 L 168.00 267.00 L 166.00 265.00 L 165.00 265.00 L 164.00 264.00 L 163.00 264.00 L 162.00 263.00 L 161.00 263.00 L 160.00 262.00 L 159.00 262.00 L 158.00 261.00 L 157.00 261.00 L 156.00 260.00 L 155.00 260.00 L 154.00 259.00 L 153.00 259.00 L 152.00 258.00 L 151.00 258.00 L 150.00 257.00 L 148.00 257.00 L 147.00 256.00 L 146.00 256.00 L 145.00 255.00 L 143.00 255.00 L 142.00 254.00 L 141.00 254.00 L 140.00 253.00 L 139.00 253.00 L 138.00 252.00 L 136.00 252.00 L 135.00 251.00 L 134.00 251.00 L 133.00 250.00 L 132.00 250.00 L 131.00 249.00 L 129.00 249.00 L 128.00 248.00 L 126.00 248.00 L 126.00 272.00 L 127.00 273.00 L 127.00 280.00 L 128.00 281.00 L 128.00 285.00 L 129.00 286.00 L 129.00 289.00 L 130.00 290.00 L 130.00 292.00 L 131.00 293.00 L 131.00 295.00 L 132.00 296.00 L 132.00 298.00 L 133.00 299.00 L 133.00 301.00 L 134.00 302.00 L 134.00 303.00 L 135.00 304.00 L 135.00 305.00 L 136.00 306.00 L 136.00 307.00 L 137.00 308.00 L 137.00 309.00 L 139.00 311.00 L 139.00 312.00 L 141.00 314.00 L 141.00 315.00 L 145.00 319.00 L 145.00 320.00 L 146.00 320.00 L 153.00 327.00 L 154.00 327.00 L 156.00 329.00 L 157.00 329.00 L 159.00 331.00 L 160.00 331.00 L 161.00 332.00 L 162.00 332.00 L 163.00 333.00 L 164.00 333.00 L 165.00 334.00 L 166.00 334.00 L 167.00 335.00 L 169.00 335.00 L 170.00 336.00 L 172.00 336.00 L 173.00 337.00 L 175.00 337.00 L 176.00 338.00 L 178.00 338.00 L 179.00 339.00 L 183.00 339.00 L 184.00 340.00 L 188.00 340.00 L 189.00 341.00 L 192.00 341.00 L 193.00 342.00 L 195.00 342.00 L 197.00 344.00 L 198.00 344.00 L 201.00 347.00 L 201.00 352.00 L 199.00 354.00 L 199.00 355.00 L 197.00 357.00 L 197.00 358.00 L 196.00 359.00 L 196.00 360.00 L 195.00 361.00 L 195.00 362.00 L 194.00 363.00 L 194.00 364.00 L 193.00 365.00 L 193.00 367.00 L 192.00 368.00 L 192.00 370.00 L 191.00 371.00 L 191.00 373.00 L 190.00 374.00 L 190.00 376.00 L 189.00 377.00 L 189.00 381.00 L 188.00 382.00 L 188.00 386.00 L 187.00 387.00 L 187.00 393.00 L 186.00 394.00 L 186.00 403.00 L 185.00 404.00 L 185.00 418.00 L 186.00 419.00 L 186.00 428.00 L 187.00 429.00 L 187.00 435.00 L 188.00 436.00 L 188.00 439.00 L 189.00 440.00 L 189.00 444.00 L 190.00 445.00 L 190.00 447.00 L 191.00 448.00 L 191.00 450.00 L 192.00 451.00 L 192.00 453.00 L 193.00 454.00 L 193.00 455.00 L 194.00 456.00 L 194.00 458.00 L 195.00 459.00 L 195.00 460.00 L 196.00 461.00 L 196.00 462.00 L 197.00 463.00 L 197.00 464.00 L 198.00 465.00 L 198.00 466.00 L 200.00 468.00 L 200.00 469.00 L 201.00 470.00 L 201.00 471.00 L 203.00 473.00 L 203.00 474.00 L 206.00 477.00 L 206.00 478.00 L 209.00 481.00 L 209.00 482.00 L 231.00 504.00 L 232.00 504.00 L 251.00 523.00 L 251.00 524.00 L 256.00 529.00 L 256.00 530.00 L 259.00 533.00 L 259.00 534.00 L 261.00 536.00 L 261.00 537.00 L 263.00 539.00 L 263.00 540.00 L 264.00 541.00 L 266.00 541.00 L 266.00 540.00 L 268.00 538.00 L 268.00 537.00 L 270.00 535.00 L 270.00 534.00 L 272.00 532.00 L 272.00 531.00 L 273.00 530.00 L 273.00 528.00 L 274.00 527.00 L 274.00 526.00 L 275.00 525.00 L 275.00 524.00 L 276.00 523.00 L 276.00 522.00 L 277.00 521.00 L 277.00 519.00 L 278.00 518.00 L 278.00 516.00 L 279.00 515.00 L 279.00 514.00 L 280.00 513.00 L 280.00 511.00 L 281.00 510.00 L 281.00 508.00 L 282.00 507.00 L 282.00 505.00 L 283.00 504.00 L 283.00 502.00 L 284.00 501.00 L 284.00 498.00 L 285.00 497.00 L 285.00 494.00 L 286.00 493.00 L 286.00 490.00 L 287.00 489.00 L 287.00 485.00 L 288.00 484.00 L 288.00 481.00 L 289.00 480.00 L 289.00 477.00 L 290.00 476.00 L 290.00 473.00 L 291.00 472.00 L 291.00 470.00 L 292.00 469.00 L 292.00 466.00 L 293.00 465.00 L 293.00 463.00 L 294.00 462.00 L 294.00 460.00 L 295.00 459.00 L 295.00 458.00 L 296.00 457.00 L 296.00 456.00 L 297.00 455.00 L 297.00 454.00 L 298.00 453.00 L 298.00 452.00 L 299.00 451.00 L 299.00 449.00 L 297.00 449.00 L 297.00 450.00 L 296.00 451.00 L 296.00 452.00 L 295.00 453.00 L 295.00 454.00 L 294.00 455.00 L 294.00 456.00 L 293.00 457.00 L 293.00 458.00 L 292.00 459.00 L 292.00 461.00 L 291.00 462.00 L 291.00 464.00 L 290.00 465.00 L 290.00 467.00 L 289.00 468.00 L 289.00 471.00 L 288.00 472.00 L 288.00 474.00 L 287.00 475.00 L 287.00 478.00 L 286.00 479.00 L 286.00 482.00 L 285.00 483.00 L 285.00 487.00 L 284.00 488.00 L 284.00 491.00 L 283.00 492.00 L 283.00 494.00 L 282.00 495.00 L 282.00 498.00 L 281.00 499.00 L 281.00 502.00 L 280.00 503.00 L 280.00 505.00 L 279.00 506.00 L 279.00 508.00 L 278.00 509.00 L 278.00 511.00 L 277.00 512.00 L 277.00 514.00 L 276.00 515.00 L 276.00 516.00 L 275.00 517.00 L 275.00 519.00 L 274.00 520.00 L 274.00 521.00 L 273.00 522.00 L 273.00 524.00 L 272.00 525.00 L 272.00 526.00 L 271.00 527.00 L 269.00 527.00 L 267.00 525.00 L 267.00 524.00 L 266.00 523.00 L 266.00 522.00 L 265.00 521.00 L 265.00 519.00 L 263.00 517.00 L 263.00 516.00 L 262.00 515.00 L 262.00 514.00 L 261.00 513.00 L 261.00 512.00 L 259.00 510.00 L 259.00 509.00 L 256.00 506.00 L 256.00 505.00 L 253.00 502.00 L 253.00 501.00 L 234.00 482.00 L 234.00 481.00 L 229.00 476.00 L 229.00 475.00 L 227.00 473.00 L 227.00 472.00 L 226.00 471.00 L 226.00 470.00 L 225.00 469.00 L 225.00 468.00 L 224.00 467.00 L 224.00 466.00 L 223.00 465.00 L 223.00 463.00 L 222.00 462.00 L 222.00 461.00 L 221.00 460.00 L 221.00 457.00 L 220.00 456.00 L 220.00 454.00 L 219.00 453.00 L 219.00 450.00 L 218.00 449.00 L 218.00 446.00 L 217.00 445.00 L 217.00 440.00 L 216.00 439.00 L 216.00 433.00 L 215.00 432.00 L 215.00 420.00 L 213.00 420.00 L 213.00 432.00 L 214.00 433.00 L 214.00 441.00 L 215.00 442.00 L 215.00 447.00 L 216.00 448.00 L 216.00 452.00 L 217.00 453.00 L 217.00 455.00 L 218.00 456.00 L 218.00 458.00 L 217.00 459.00 L 215.00 459.00 L 212.00 456.00 L 212.00 455.00 L 208.00 451.00 L 208.00 450.00 L 206.00 448.00 L 206.00 447.00 L 204.00 445.00 L 204.00 444.00 L 202.00 442.00 L 202.00 441.00 L 201.00 440.00 L 201.00 439.00 L 200.00 438.00 L 200.00 437.00 L 199.00 436.00 L 199.00 435.00 L 198.00 434.00 L 198.00 433.00 L 197.00 432.00 L 197.00 431.00 L 196.00 430.00 L 196.00 428.00 L 195.00 427.00 L 195.00 424.00 L 194.00 423.00 L 194.00 421.00 L 193.00 420.00 L 193.00 416.00 L 192.00 415.00 L 192.00 409.00 L 191.00 408.00 L 191.00 388.00 L 192.00 387.00 L 192.00 381.00 L 193.00 380.00 L 193.00 377.00 L 194.00 376.00 L 194.00 373.00 L 195.00 372.00 L 195.00 369.00 L 196.00 368.00 L 196.00 366.00 L 197.00 365.00 L 197.00 364.00 L 198.00 363.00 L 198.00 362.00 L 199.00 361.00 L 199.00 359.00 L 200.00 358.00 L 200.00 357.00 L 202.00 355.00 L 202.00 354.00 L 205.00 351.00 L 205.00 349.00 L 204.00 348.00 L 204.00 346.00 L 202.00 344.00 L 202.00 343.00 L 199.00 340.00 L 198.00 340.00 L 196.00 338.00 L 195.00 338.00 L 194.00 337.00 L 192.00 337.00 L 191.00 336.00 L 188.00 336.00 L 187.00 335.00 L 184.00 335.00 L 183.00 334.00 L 179.00 334.00 L 178.00 333.00 L 175.00 333.00 L 174.00 332.00 L 173.00 332.00 L 172.00 331.00 L 170.00 331.00 L 169.00 330.00 L 168.00 330.00 L 167.00 329.00 L 166.00 329.00 L 165.00 328.00 L 164.00 328.00 L 163.00 327.00 L 162.00 327.00 L 161.00 326.00 L 160.00 326.00 L 158.00 324.00 L 157.00 324.00 L 145.00 312.00 L 145.00 311.00 L 143.00 309.00 L 143.00 308.00 L 141.00 306.00 L 141.00 305.00 L 140.00 304.00 L 140.00 303.00 L 139.00 302.00 L 139.00 301.00 L 138.00 300.00 L 138.00 299.00 L 137.00 298.00 L 137.00 297.00 L 136.00 296.00 L 136.00 294.00 L 135.00 293.00 L 135.00 291.00 L 134.00 290.00 L 134.00 288.00 L 133.00 287.00 L 133.00 285.00 L 132.00 284.00 L 132.00 279.00 L 131.00 278.00 L 131.00 272.00 L 130.00 271.00 L 130.00 261.00 L 129.00 260.00 L 129.00 254.00 L 130.00 253.00 L 132.00 253.00 L 133.00 254.00 L 134.00 254.00 L 135.00 255.00 L 136.00 255.00 L 137.00 256.00 L 138.00 256.00 L 139.00 257.00 L 140.00 257.00 L 141.00 258.00 L 143.00 258.00 L 144.00 259.00 L 145.00 259.00 L 146.00 260.00 L 147.00 260.00 L 148.00 261.00 L 149.00 261.00 L 150.00 262.00 L 152.00 262.00 L 153.00 263.00 L 154.00 263.00 L 155.00 264.00 L 156.00 264.00 L 157.00 265.00 L 158.00 265.00 L 159.00 266.00 L 160.00 266.00 L 161.00 267.00 L 162.00 267.00 L 163.00 268.00 L 164.00 268.00 L 166.00 270.00 L 167.00 270.00 L 169.00 272.00 L 170.00 272.00 L 181.00 283.00 L 181.00 284.00 L 183.00 286.00 L 183.00 287.00 L 185.00 289.00 L 185.00 290.00 L 186.00 291.00 L 186.00 292.00 L 187.00 293.00 L 187.00 294.00 L 188.00 295.00 L 188.00 296.00 L 189.00 297.00 L 189.00 298.00 L 190.00 299.00 L 190.00 300.00 L 192.00 302.00 L 192.00 303.00 L 194.00 305.00 L 195.00 305.00 L 197.00 307.00 L 198.00 307.00 L 200.00 309.00 L 202.00 309.00 L 203.00 310.00 L 205.00 310.00 L 206.00 311.00 L 208.00 311.00 L 209.00 312.00 L 212.00 312.00 L 213.00 313.00 L 215.00 313.00 L 216.00 314.00 L 218.00 314.00 L 219.00 315.00 L 229.00 315.00 L 230.00 314.00 L 232.00 314.00 L 233.00 313.00 L 234.00 313.00 L 235.00 312.00 L 236.00 312.00 L 242.00 306.00 L 242.00 305.00 L 244.00 303.00 L 244.00 301.00 L 245.00 300.00 L 245.00 292.00 L 246.00 291.00 L 246.00 283.00 L 245.00 282.00 L 245.00 279.00 L 246.00 278.00 L 246.00 265.00 L 247.00 264.00 L 247.00 258.00 L 248.00 257.00 L 248.00 252.00 L 249.00 251.00 L 249.00 245.00 L 250.00 244.00 L 250.00 226.00 L 249.00 225.00 L 249.00 220.00 L 248.00 219.00 L 248.00 215.00 L 247.00 214.00 L 247.00 211.00 L 246.00 210.00 L 246.00 208.00 L 245.00 207.00 L 245.00 206.00 L 244.00 205.00 L 244.00 204.00 L 243.00 203.00 L 243.00 202.00 L 242.00 201.00 L 242.00 200.00 L 240.00 198.00 L 240.00 197.00 L 238.00 195.00 L 238.00 194.00 L 236.00 192.00 L 234.00 192.00 L 234.00 194.00 L 236.00 196.00 L 236.00 197.00 L 237.00 198.00 L 237.00 199.00 L 238.00 200.00 L 238.00 202.00 L 239.00 203.00 L 239.00 206.00 L 240.00 207.00 L 240.00 211.00 L 241.00 212.00 L 241.00 226.00 L 240.00 227.00 L 240.00 232.00 L 239.00 233.00 L 239.00 236.00 L 238.00 237.00 L 238.00 239.00 L 237.00 240.00 L 237.00 242.00 L 236.00 243.00 L 236.00 244.00 L 235.00 245.00 L 235.00 246.00 L 233.00 248.00 L 231.00 248.00 L 230.00 247.00 L 229.00 247.00 L 228.00 246.00 L 227.00 246.00 L 225.00 244.00 L 224.00 244.00 L 223.00 243.00 L 222.00 243.00 L 221.00 242.00 L 220.00 242.00 L 219.00 241.00 L 218.00 241.00 L 217.00 240.00 L 216.00 240.00 L 215.00 239.00 L 213.00 239.00 L 212.00 238.00 L 211.00 238.00 L 210.00 237.00 L 209.00 237.00 L 208.00 236.00 L 206.00 236.00 L 205.00 235.00 L 203.00 235.00 L 202.00 234.00 L 201.00 234.00 L 200.00 233.00 L 198.00 233.00 L 197.00 232.00 L 196.00 232.00 L 195.00 231.00 L 193.00 231.00 L 192.00 230.00 L 190.00 230.00 L 189.00 229.00 L 188.00 229.00 L 187.00 228.00 L 186.00 228.00 L 185.00 227.00 L 184.00 227.00 L 183.00 226.00 L 182.00 226.00 L 181.00 225.00 L 180.00 225.00 L 179.00 224.00 L 178.00 224.00 L 177.00 223.00 L 176.00 223.00 L 174.00 221.00 L 173.00 221.00 L 171.00 219.00 L 170.00 219.00 L 158.00 207.00 L 158.00 204.00 L 157.00 204.00 L 155.00 202.00 L 155.00 201.00 L 154.00 200.00 L 154.00 199.00 L 153.00 198.00 L 153.00 197.00 L 152.00 196.00 L 152.00 195.00 L 151.00 194.00 L 151.00 192.00 L 150.00 191.00 L 150.00 188.00 L 149.00 187.00 L 149.00 176.00 L 150.00 175.00 L 150.00 172.00 L 151.00 171.00 L 151.00 169.00 L 152.00 168.00 L 152.00 167.00 L 153.00 166.00 L 153.00 165.00 L 154.00 164.00 L 154.00 163.00 L 155.00 162.00 L 155.00 161.00 L 157.00 159.00 L 157.00 158.00 L 159.00 156.00 L 159.00 155.00 L 183.00 131.00 L 183.00 130.00 L 187.00 126.00 L 187.00 125.00 L 190.00 122.00 L 190.00 121.00 L 192.00 119.00 L 192.00 118.00 L 194.00 116.00 L 194.00 115.00 L 195.00 114.00 L 195.00 113.00 L 196.00 112.00 L 196.00 111.00 L 197.00 110.00 L 197.00 109.00 L 198.00 108.00 L 198.00 106.00 L 199.00 105.00 L 199.00 103.00 L 200.00 102.00 L 200.00 100.00 L 201.00 99.00 L 201.00 96.00 L 202.00 95.00 L 202.00 91.00 L 203.00 90.00 L 203.00 81.00 L 204.00 80.00 L 204.00 60.00 Z" class="shape" fill-rule="nonzero"/>
  <path d="M 175.00 22.00 L 173.00 24.00 L 172.00 24.00 L 169.00 27.00 L 168.00 27.00 L 166.00 29.00 L 165.00 29.00 L 160.00 34.00 L 159.00 34.00 L 153.00 40.00 L 152.00 40.00 L 152.00 41.00 L 151.00 42.00 L 150.00 42.00 L 146.00 46.00 L 146.00 47.00 L 141.00 52.00 L 141.00 53.00 L 138.00 56.00 L 138.00 57.00 L 135.00 60.00 L 135.00 61.00 L 133.00 63.00 L 133.00 64.00 L 132.00 65.00 L 132.00 66.00 L 130.00 68.00 L 130.00 69.00 L 129.00 70.00 L 129.00 71.00 L 128.00 72.00 L 128.00 73.00 L 126.00 75.00 L 126.00 77.00 L 125.00 78.00 L 125.00 79.00 L 124.00 80.00 L 124.00 81.00 L 123.00 82.00 L 123.00 83.00 L 122.00 84.00 L 122.00 86.00 L 121.00 87.00 L 121.00 88.00 L 120.00 89.00 L 120.00 91.00 L 119.00 92.00 L 119.00 93.00 L 118.00 94.00 L 118.00 96.00 L 117.00 97.00 L 117.00 100.00 L 116.00 101.00 L 116.00 103.00 L 115.00 104.00 L 115.00 108.00 L 114.00 109.00 L 114.00 113.00 L 113.00 114.00 L 113.00 124.00 L 112.00 125.00 L 112.00 128.00 L 113.00 129.00 L 113.00 137.00 L 114.00 138.00 L 114.00 141.00 L 115.00 142.00 L 115.00 145.00 L 116.00 146.00 L 116.00 149.00 L 117.00 150.00 L 119.00 150.00 L 122.00 147.00 L 122.00 146.00 L 126.00 142.00 L 126.00 141.00 L 127.00 140.00 L 127.00 137.00 L 128.00 136.00 L 129.00 136.00 L 130.00 135.00 L 130.00 134.00 L 131.00 133.00 L 131.00 131.00 L 132.00 130.00 L 132.00 127.00 L 133.00 126.00 L 133.00 119.00 L 134.00 118.00 L 134.00 102.00 L 132.00 102.00 L 132.00 107.00 L 131.00 108.00 L 131.00 115.00 L 130.00 116.00 L 130.00 123.00 L 129.00 124.00 L 129.00 132.00 L 128.00 133.00 L 126.00 133.00 L 125.00 132.00 L 125.00 130.00 L 124.00 129.00 L 124.00 121.00 L 125.00 120.00 L 125.00 110.00 L 126.00 109.00 L 126.00 104.00 L 127.00 103.00 L 127.00 99.00 L 128.00 98.00 L 128.00 95.00 L 129.00 94.00 L 129.00 92.00 L 130.00 91.00 L 130.00 90.00 L 131.00 89.00 L 131.00 87.00 L 132.00 86.00 L 132.00 84.00 L 133.00 83.00 L 133.00 82.00 L 134.00 81.00 L 134.00 80.00 L 135.00 79.00 L 135.00 78.00 L 136.00 77.00 L 136.00 76.00 L 137.00 75.00 L 137.00 73.00 L 139.00 71.00 L 139.00 70.00 L 140.00 69.00 L 140.00 68.00 L 141.00 67.00 L 141.00 66.00 L 142.00 65.00 L 142.00 64.00 L 144.00 62.00 L 144.00 61.00 L 145.00 60.00 L 145.00 59.00 L 147.00 57.00 L 147.00 56.00 L 149.00 54.00 L 149.00 53.00 L 152.00 50.00 L 152.00 49.00 L 157.00 44.00 L 157.00 43.00 L 175.00 25.00 L 176.00 25.00 L 177.00 24.00 L 177.00 22.00 Z" class="shape" fill-rule="nonzero"/>
</svg>