<?xml version="1.0" encoding="utf-8"?>
<!-- Generator: Adobe Illustrator 16.0.3, SVG Export Plug-In . SVG Version: 6.00 Build 0)  -->
<!DOCTYPE svg PUBLIC "-//W3C//DTD SVG 1.1//EN" "http://www.w3.org/Graphics/SVG/1.1/DTD/svg11.dtd">
<svg version="1.1" id="Layer-1" xmlns="http://www.w3.org/2000/svg" xmlns:xlink="http://www.w3.org/1999/xlink" x="0px" y="0px"
	 width="864px" height="864px" viewBox="0 0 864 864" enable-background="new 0 0 864 864" xml:space="preserve">
<path fill="none" stroke="#000000" stroke-width="0.7087" stroke-miterlimit="3.8637" d="M767.562,65.292
	c11.887,0,21.523,9.32,21.523,20.817v64.851c0,11.497-9.636,20.817-21.523,20.817h-19.867c-39.53,0-26.618,271.713-26.618,271.713
	l-17.031,47l-17.031-47c0,0,12.911-271.713-26.618-271.713h-19.867c-11.887,0-21.523-9.32-21.523-20.817V86.109
	c0-11.497,9.636-20.817,21.523-20.817H767.562z"/>
<path fill="none" stroke="#000000" stroke-width="0.7087" stroke-miterlimit="3.8637" d="M508.758,210.762
	c-2.201-0.225-4.368-1.432-6.84-4.118c-4.82-5.239-5.303-21.637-5.303-21.637s-15.944,6.854-22.863,5.272
	c-6.918-1.582-8.416-4.969-8.918-10.502c-0.503-5.533,2.619-10.181,2.62-10.181c0,0.001-5.561,0.398-10.071-2.807
	c-4.51-3.205-6.676-6.203-4.578-13.024c2.098-6.821,15.968-17.29,15.968-17.29s-13.87-8.619-15.968-15.44
	c-2.098-6.821,0.067-9.82,4.578-13.024c4.51-3.205,10.071-2.808,10.071-2.807s-3.123-4.647-2.62-10.18
	c0.502-5.533,2-8.92,8.918-10.502c6.918-1.582,21.271,6.197,21.271,6.197s2.074-17.323,6.895-22.562
	c4.82-5.239,8.484-4.851,13.497-2.522c5.013,2.329,7.452,7.374,7.451,7.374c0,0,2.438-5.045,7.451-7.374
	c5.013-2.328,8.676-2.716,13.497,2.522c4.82,5.239,6.895,22.561,6.895,22.561s14.352-7.779,21.271-6.197
	c6.919,1.582,8.417,4.969,8.919,10.502c0.502,5.533-2.62,10.181-2.62,10.18c0-0.001,5.561-0.398,10.071,2.807
	c4.51,3.205,6.676,6.204,4.578,13.024s-15.968,15.44-15.968,15.44s13.87,10.469,15.968,17.29c2.098,6.821-0.067,9.82-4.578,13.024
	c-4.51,3.205-10.071,2.808-10.07,2.807c0-0.001,3.123,4.647,2.62,10.181c-0.502,5.533-2,8.92-8.919,10.502
	c-6.918,1.582-22.863-5.272-22.863-5.272s-0.482,16.398-5.302,21.637c-2.478,2.693-4.65,3.899-6.857,4.119v237.384l-14.1,41.049
	l-14.099-41.049V210.762z"/>
<path fill="none" stroke="#000000" stroke-width="0.7087" stroke-miterlimit="3.8637" d="M153.57,211.009
	c-5.264,29.124-1.223,100.357-1.223,100.357l-9.489,36.098l-9.489-36.098c0,0,4.04-71.229-1.222-100.353
	c-3.487,0.962-6.514,0.264-10.229-3.79c-4.82-5.26-5.303-21.725-5.303-21.725s-15.944,6.881-22.863,5.293s-8.416-4.989-8.919-10.544
	c-0.503-5.556,2.619-10.223,2.62-10.222c0,0.001-5.56,0.399-10.071-2.818s-6.676-6.229-4.578-13.077s15.968-17.36,15.968-17.36
	s-13.87-8.654-15.968-15.503c-2.098-6.848,0.068-9.859,4.578-13.077c4.51-3.218,10.071-2.819,10.071-2.818
	c0,0.001-3.123-4.666-2.62-10.222c0.503-5.556,2-8.956,8.919-10.545c6.918-1.588,21.271,6.222,21.271,6.222
	s2.074-17.393,6.895-22.654c4.82-5.26,8.484-4.871,13.497-2.533c5.013,2.338,7.452,7.404,7.451,7.404s2.438-5.066,7.451-7.404
	s8.677-2.728,13.497,2.533c4.82,5.26,6.895,22.653,6.895,22.653s14.352-7.81,21.271-6.222c6.918,1.588,8.416,4.989,8.919,10.545
	s-2.619,10.223-2.62,10.222c0-0.001,5.56-0.4,10.071,2.818c4.51,3.218,6.676,6.229,4.578,13.077
	c-2.098,6.848-15.968,15.503-15.968,15.503s13.87,10.512,15.968,17.36s-0.067,9.859-4.578,13.077
	c-4.51,3.218-10.072,2.819-10.071,2.818c0-0.001,3.123,4.666,2.62,10.222s-2,8.957-8.919,10.545
	c-6.918,1.588-22.863-5.293-22.863-5.293s-0.482,16.465-5.302,21.725C160.094,211.283,157.063,211.978,153.57,211.009z"/>
<path fill="none" stroke="#000000" stroke-width="0.7087" stroke-miterlimit="3.8637" d="M387.559,64
	c11.887,0,21.523,9.38,21.523,20.952v65.272c0,11.572-9.636,20.952-21.523,20.952h-23.99c-39.529,0-26.618,128.982-26.618,128.982
	l-12.908,47.306l-12.908-47.306c0,0,12.912-128.982-26.618-128.982h-23.99c-11.887,0-21.523-9.381-21.523-20.952V84.952
	c0-11.572,9.636-20.952,21.523-20.952H387.559z"/>
<path fill="none" stroke="#000000" stroke-width="0.7087" stroke-miterlimit="3.8637" d="M403.653,388.803
	c15.656,0,28.347,12.879,28.347,28.766v66.273c0,15.888-12.691,28.766-28.347,28.766l-27.288,0.002
	c-54.098,0-77.098,285.152-86.098,301.389c-9-16.237-32-301.389-86.097-301.389l-27.288-0.002
	c-15.656,0-28.346-12.878-28.346-28.766v-66.273c0-15.887,12.691-28.766,28.346-28.766H403.653z"/>
</svg>
