<?xml version="1.0" encoding="utf-8"?>
<!-- Generator: Adobe Illustrator 16.0.3, SVG Export Plug-In . SVG Version: 6.00 Build 0)  -->
<!DOCTYPE svg PUBLIC "-//W3C//DTD SVG 1.1//EN" "http://www.w3.org/Graphics/SVG/1.1/DTD/svg11.dtd">
<svg version="1.1" id="Layer-1" xmlns="http://www.w3.org/2000/svg" xmlns:xlink="http://www.w3.org/1999/xlink" x="0px" y="0px"
	 width="864px" height="864px" viewBox="0 0 864 864" enable-background="new 0 0 864 864" xml:space="preserve">
<polygon fill-rule="evenodd" clip-rule="evenodd" fill="none" stroke="#000000" stroke-width="0.7087" stroke-miterlimit="3.8637" points="
	73.433,172 108.866,172 108.866,398.771 73.433,455.465 38,398.771 38,172 "/>
<polygon fill-rule="evenodd" clip-rule="evenodd" fill="none" stroke="#000000" stroke-width="0.7087" stroke-miterlimit="3.8637" points="
	209.365,172 209.365,540.403 173.932,597.197 138.5,540.403 138.499,172 "/>
<polygon fill-rule="evenodd" clip-rule="evenodd" fill="none" stroke="#000000" stroke-width="0.7087" stroke-miterlimit="3.8637" points="
	322.37,172 322.367,682.135 286.935,738.929 251.504,682.135 251.507,172 "/>
<path fill="none" stroke="#000000" stroke-width="0.7087" stroke-miterlimit="3.8637" d="M365.5,172H546.5l0,22.66
	c14.365,10.642,22.886,23.897,22.886,38.267c0,14.37-8.521,27.625-22.886,38.267v22.66h-40.789
	c-7.2,31.437-22.315,97.61-24.211,107.396c-2.5,12.908-25.5,54.215-25.5,54.215s-23-41.307-25.5-54.215
	c-1.896-9.786-17.011-75.959-24.211-107.396H365.5v-22.66c-14.365-10.642-22.886-23.896-22.886-38.267
	c0-14.37,8.521-27.625,22.886-38.267L365.5,172z"/>
<path fill="none" stroke="#000000" stroke-width="0.7087" stroke-miterlimit="3.8637" d="M614.493,172h181.001l0,21.876
	c14.366,10.274,22.886,23.07,22.886,36.943c0,13.873-8.52,26.669-22.886,36.943v21.876h-40.789
	c-7.201,30.35-22.316,245.77-24.211,255.218c-2.5,12.462-25.5,52.339-25.5,52.339s-23-39.877-25.5-52.339
	c-1.895-9.448-17.011-224.868-24.211-255.218h-40.789v-21.876c-14.365-10.274-22.886-23.071-22.886-36.943
	c0-13.873,8.521-26.67,22.886-36.943L614.493,172z"/>
</svg>
